<svg width="26" height="26" viewBox="0 0 26 26" fill="none" xmlns="http://www.w3.org/2000/svg">
<path fill-rule="evenodd" clip-rule="evenodd" d="M8.12496 1.08337C8.72327 1.08337 9.20829 1.5684 9.20829 2.16671V3.25004H16.7916V2.16671C16.7916 1.5684 17.2766 1.08337 17.875 1.08337C18.4733 1.08337 18.9583 1.5684 18.9583 2.16671V3.27679C21.6955 3.54855 23.8333 5.85798 23.8333 8.66671V18.4167C23.8333 21.4082 21.4082 23.8334 18.4166 23.8334H7.58329C4.59175 23.8334 2.16663 21.4082 2.16663 18.4167V8.66671C2.16663 5.85798 4.30441 3.54855 7.04163 3.27679V2.16671C7.04163 1.5684 7.52665 1.08337 8.12496 1.08337ZM4.51822 7.58337H21.4817C21.0355 6.32108 19.8317 5.41671 18.4166 5.41671H7.58329C6.16822 5.41671 4.96438 6.32108 4.51822 7.58337ZM21.6666 9.75004H4.33329V18.4167C4.33329 20.2116 5.78837 21.6667 7.58329 21.6667H18.4166C20.2115 21.6667 21.6666 20.2116 21.6666 18.4167V9.75004Z" fill="#70707B"/>
<path fill-rule="evenodd" clip-rule="evenodd" d="M13 13.8062C13 13.8062 14.2115 13.8062 15.0682 14.6629C15.0682 14.6629 15.925 15.5196 15.925 16.7312C15.925 16.7312 15.925 17.9427 15.0682 18.7994C15.0682 18.7994 14.2115 19.6562 13 19.6562C13 19.6562 11.7884 19.6562 10.9317 18.7994C10.9317 18.7994 10.075 17.9427 10.075 16.7312C10.075 16.7312 10.075 15.5196 10.9317 14.6629C10.9317 14.6629 11.7884 13.8062 13 13.8062ZM13 14.7812C13 14.7812 12.1922 14.7812 11.6211 15.3523C11.6211 15.3523 11.05 15.9234 11.05 16.7312C11.05 16.7312 11.05 17.5389 11.6211 18.11C11.6211 18.11 12.1922 18.6812 13 18.6812C13 18.6812 13.8077 18.6812 14.3788 18.11C14.3788 18.11 14.95 17.5389 14.95 16.7312C14.95 16.7312 14.95 15.9234 14.3788 15.3523C14.3788 15.3523 13.8077 14.7812 13 14.7812Z" fill="#358B57"/>
<path d="M19.6781 17.0229L19.6783 17.0231C19.7557 17.1267 19.871 17.1952 19.999 17.2137C20.0221 17.2171 20.0454 17.2188 20.0688 17.2188L20.0696 17.2188C20.1745 17.2186 20.2766 17.1845 20.3606 17.1217C20.4837 17.0297 20.5563 16.885 20.5563 16.7313L20.5562 16.7257C20.555 16.6224 20.5211 16.5221 20.4592 16.4394L20.4588 16.4389C19.8729 15.6551 18.9975 15.2174 18.9975 15.2174C18.1219 14.7796 17.1429 14.7813 17.1429 14.7813L17.1438 14.7813C17.413 14.7813 17.6313 14.9995 17.6313 15.2688C17.6313 15.5376 17.4137 15.7557 17.1448 15.7563L19.6781 17.0229Z" fill="#358B57"/>
<path d="M7.43847 16.0895C8.10746 15.755 8.85541 15.7563 8.85541 15.7563L8.85609 15.7563H8.85623C8.86376 15.7563 8.8713 15.7561 8.87883 15.7557C8.99989 15.7501 9.11452 15.6996 9.20036 15.614C9.29194 15.5228 9.34351 15.3989 9.34372 15.2696L9.34373 15.2689V15.2688C9.34373 15.2393 9.34105 15.2099 9.33573 15.1809C9.29336 14.9497 9.09207 14.7816 8.85704 14.7813L8.85623 14.7813C7.8777 14.7798 7.00244 15.2174 7.00244 15.2174C6.12712 15.6551 5.54115 16.4389 5.54115 16.4389L5.5408 16.4393C5.47776 16.5237 5.44373 16.6261 5.44373 16.7313L5.44375 16.7364C5.44398 16.758 5.44565 16.7796 5.44874 16.801C5.46724 16.929 5.53581 17.0443 5.63938 17.1217C5.72365 17.1847 5.82602 17.2188 5.93123 17.2188C5.93774 17.2188 5.94426 17.2186 5.95077 17.2184C6.09752 17.2125 6.23379 17.1407 6.32171 17.0231C6.76948 16.424 7.43847 16.0895 7.43847 16.0895Z" fill="#358B57"/>
<path d="M14.8109 20.1768C15.6415 20.6956 16.0715 21.5755 16.0715 21.5755L16.0717 21.576L16.0719 21.5763C16.1536 21.7437 16.3236 21.8499 16.5099 21.8499L16.5233 21.8497C16.5929 21.8478 16.6613 21.831 16.7238 21.8005C16.8913 21.7187 16.9974 21.5487 16.9974 21.3624L16.9973 21.3491C16.9954 21.2795 16.9786 21.2111 16.948 21.1485L16.9478 21.1481C16.3953 20.0168 15.3274 19.3498 15.3274 19.3498C14.2592 18.6827 12.9999 18.6827 12.9999 18.6827C11.7406 18.6827 10.6725 19.3498 10.6725 19.3498C9.60461 20.0168 9.05206 21.1481 9.05206 21.1481L9.0519 21.1485C9.01935 21.2151 9.00244 21.2883 9.00244 21.3624L9.00248 21.3688C9.00316 21.4206 9.01208 21.4719 9.02893 21.5209C9.07097 21.6432 9.15986 21.7438 9.27604 21.8005C9.34265 21.833 9.41581 21.8499 9.48994 21.8499L9.50114 21.8498C9.68336 21.8456 9.84803 21.7401 9.92801 21.5763C10.3579 20.6958 11.189 20.1768 11.189 20.1768C12.0201 19.6577 12.9999 19.6577 12.9999 19.6577C13.9798 19.6577 14.8109 20.1768 14.8109 20.1768Z" fill="#358B57"/>
<path d="M9.92011 12.3173C10.2111 12.6271 10.2908 13.0445 10.2908 13.0445C10.315 13.1715 10.3887 13.2837 10.4957 13.3563C10.5765 13.4112 10.6719 13.4406 10.7696 13.4406L10.7728 13.4406C10.8024 13.4404 10.832 13.4375 10.8611 13.432C11.0909 13.3881 11.2571 13.1871 11.2571 12.9531L11.2571 12.9504C11.257 12.9206 11.2541 12.8909 11.2485 12.8617C11.1157 12.1659 10.6307 11.6497 10.6307 11.6497C10.1457 11.1335 9.4596 10.9576 9.4596 10.9576C8.77348 10.7817 8.09994 11.0009 8.09994 11.0009C7.4264 11.2201 6.97522 11.7661 6.97522 11.7661C6.52404 12.3121 6.43574 13.0149 6.43574 13.0149C6.34745 13.7177 6.64953 14.3583 6.64953 14.3583C6.95162 14.999 7.55001 15.378 7.55001 15.378C8.14819 15.7568 8.85621 15.7562 8.85621 15.7562L8.8567 15.7562C8.98599 15.7561 9.10994 15.7046 9.20127 15.6131C9.29248 15.5217 9.34371 15.3978 9.34371 15.2687L9.34371 15.2682C9.34343 14.9992 9.12525 14.7812 8.85621 14.7812L8.85571 14.7812C8.43073 14.7817 8.0717 14.5543 8.0717 14.5543C7.71267 14.3269 7.53141 13.9425 7.53141 13.9425C7.35016 13.5581 7.40314 13.1364 7.40314 13.1364C7.45611 12.7147 7.72682 12.3871 7.72682 12.3871C7.99753 12.0595 8.40166 11.928 8.40166 11.928C8.80578 11.7965 9.21745 11.902 9.21745 11.902C9.62912 12.0076 9.92011 12.3173 9.92011 12.3173Z" fill="#358B57"/>
<path d="M17.9282 14.5543C17.5692 14.7817 17.1442 14.7812 17.1442 14.7812L17.1437 14.7812C17.1361 14.7812 17.1284 14.7814 17.1208 14.7818L16.6568 15.2916C16.6625 15.4127 16.7131 15.5273 16.7987 15.6131C16.89 15.7046 17.0139 15.7561 17.1432 15.7562L17.1437 15.7562C17.8518 15.7568 18.4499 15.378 18.4499 15.378C19.0483 14.999 19.3504 14.3583 19.3504 14.3583C19.6525 13.7176 19.5642 13.0149 19.5642 13.0149C19.4759 12.3121 19.0247 11.7661 19.0247 11.7661C18.5735 11.2201 17.9 11.0009 17.9 11.0009C17.2265 10.7817 16.5403 10.9576 16.5403 10.9576C15.8542 11.1335 15.3692 11.6497 15.3692 11.6497C14.8843 12.1659 14.7514 12.8617 14.7514 12.8617C14.7457 12.8918 14.7428 12.9224 14.7428 12.9531C14.7428 12.9677 14.7435 12.9824 14.7448 12.997C14.7644 13.2137 14.9252 13.3912 15.1389 13.432C15.169 13.4377 15.1996 13.4406 15.2303 13.4406C15.2449 13.4406 15.2596 13.4399 15.2742 13.4386C15.4909 13.419 15.6684 13.2582 15.7092 13.0445C15.7888 12.6271 16.0798 12.3173 16.0798 12.3173C16.3708 12.0076 16.7825 11.902 16.7825 11.902C17.1942 11.7965 17.5983 11.928 17.5983 11.928C18.0024 12.0595 18.2731 12.3871 18.2731 12.3871C18.5438 12.7147 18.5968 13.1364 18.5968 13.1364C18.6498 13.5581 18.4685 13.9425 18.4685 13.9425C18.2873 14.3269 17.9282 14.5543 17.9282 14.5543Z" fill="#358B57"/>
</svg>
