<svg width="19" height="20" viewBox="0 0 19 20" fill="none" xmlns="http://www.w3.org/2000/svg">
<g clip-path="url(#clip0_790_379)">
<path d="M8.92886 18.487H4.1332C2.8299 18.487 1.77244 17.3784 1.77244 16.021V3.94787C1.77244 2.58648 2.8338 1.48187 4.1332 1.48187H9.00691C9.29956 1.48187 9.53369 1.23731 9.53369 0.931611C9.53369 0.625909 9.29956 0.381348 9.00691 0.381348H4.1332C2.24849 0.381348 0.718872 1.98322 0.718872 3.94787V16.021C0.718872 17.9898 2.25239 19.5876 4.1332 19.5876H8.92886C9.22152 19.5876 9.45565 19.343 9.45565 19.0373C9.45565 18.7316 9.21762 18.487 8.92886 18.487Z" fill="white"/>
<path d="M17.6072 9.59724L14.2592 6.10001C14.0524 5.88398 13.7207 5.88398 13.5139 6.10001C13.3071 6.31604 13.3071 6.6625 13.5139 6.87853L15.9644 9.43827H5.2766C4.98394 9.43827 4.74982 9.68283 4.74982 9.98853C4.74982 10.2942 4.98394 10.5388 5.2766 10.5388H15.9644L13.5139 13.0985C13.3071 13.3146 13.3071 13.661 13.5139 13.8771C13.6154 13.983 13.7519 14.0401 13.8846 14.0401C14.0173 14.0401 14.1538 13.9871 14.2553 13.8771L17.6033 10.3798C17.814 10.1597 17.814 9.80919 17.6072 9.59724Z" fill="white"/>
</g>
<defs>
<clipPath id="clip0_790_379">
<rect width="17.5792" height="19.2372" fill="white" transform="translate(0.710388 0.381348)"/>
</clipPath>
</defs>
</svg>
