<svg width="518" height="320" viewBox="0 0 518 320" fill="none" xmlns="http://www.w3.org/2000/svg">
<path d="M284.132 272.655C255.689 284.617 218.679 288.423 147.114 286.855C96.7904 285.709 82.7746 287.085 70.238 294.018C58.5889 300.46 52.0866 313.327 54.9338 324.501C57.2549 333.938 57.238 336.265 54.8847 336.987C51.632 337.917 47.9914 329.499 47.9597 320.535C47.7266 301.251 61.999 288.288 88.5202 283.329C100.235 281.197 126.921 280.202 153.221 280.87C226.841 282.75 256.265 279.373 288.148 265.508C315.348 253.654 335.217 225.138 338.753 192.76C339.658 183.132 339.55 181.888 337.444 181.749C303.461 180.549 274.924 171.122 252.99 153.988C246.24 148.594 243.979 146.077 239.869 138.644C233.745 127.833 233.119 120.936 237.517 113.433C240.062 109.128 241.715 107.925 249.11 104.27C272.578 92.7411 303.886 101.939 326.027 126.783C336.261 138.217 344.241 156.839 346.068 173.503C346.308 176.557 359.684 174.81 376.663 169.623C393.469 164.386 417.903 150.15 429.574 138.77C443.922 124.896 456.172 106.967 461.249 92.5695L463.787 85.371L453.111 91.9994C444.32 97.5849 442.484 98.4556 442.191 96.8788C441.972 95.6963 444.427 93.3245 449.667 89.7023C453.971 86.7431 459.31 82.7763 461.605 80.6382C463.789 78.5615 467.391 75.1207 469.636 73.1549C476.409 66.802 476.654 67.2458 480.102 86.0556C481.856 95.516 483.59 103.105 483.923 102.921C484.256 102.737 484.352 103.697 484.067 105.014C483.606 107.587 478.698 111.025 477.839 109.472C477.594 109.028 476.24 102.388 474.851 94.8988C473.462 87.4094 472.231 80.9915 472.108 80.7696C471.924 80.4368 470.451 84.5836 468.741 89.8752C461.479 113.158 444.838 134.675 420.435 152.371C402.098 165.843 380.691 175.073 358.789 179.217C351.977 180.521 346.47 181.828 346.482 182.111C343.789 211.56 336.45 230.25 320.877 247.41C315.015 253.838 299.796 265.876 294.731 268.243C293.782 268.623 288.988 270.694 284.132 272.655ZM337.428 164.953C334.624 150.713 326.169 135.686 315.377 125.863C304.707 116.262 296.27 111.221 283.386 107.046C254.455 97.6926 232.915 111.922 244.387 132.668C253.467 149.088 276.686 164.353 303.134 171.313C316.5 174.787 336.751 177.351 338.38 175.581C338.873 175.164 338.39 170.36 337.428 164.953Z" fill="#358B57"/>
</svg>
