<svg width="35" height="35" viewBox="0 0 35 35" fill="none" xmlns="http://www.w3.org/2000/svg">
<path d="M9.92737 14.9687C9.92593 13.9685 10.1224 12.9778 10.5056 12.0538C10.8887 11.1297 11.4509 10.2907 12.1595 9.58483C12.8683 8.87899 13.7098 8.32034 14.6354 7.94105C15.5611 7.56182 16.5525 7.36942 17.5528 7.37498C21.7294 7.40665 25.0726 10.8766 25.0726 15.0636V15.8125C25.0726 19.5883 25.8637 21.782 26.5597 22.9844C26.6337 23.1124 26.6728 23.2577 26.6728 23.4055C26.673 23.5534 26.6343 23.6986 26.5605 23.8268C26.4868 23.955 26.3807 24.0616 26.253 24.1359C26.1251 24.2101 25.9798 24.2495 25.8321 24.25H9.16808C9.02017 24.2495 8.87495 24.2101 8.74723 24.1359C8.61931 24.0616 8.51322 23.955 8.43948 23.8268C8.36573 23.6986 8.327 23.5534 8.32721 23.4055C8.32742 23.2577 8.36635 23.1124 8.4403 22.9844C9.13635 21.782 9.92737 19.5883 9.92737 15.8125V14.9687Z" fill="black" fill-opacity="0.4" stroke="black"/>
<path fill-rule="evenodd" clip-rule="evenodd" d="M9.08361 15.8125V14.9687C9.08361 14.9687 9.08125 13.286 9.72615 11.7306C9.72615 11.7306 10.3711 10.1751 11.5642 8.98692C11.5642 8.98692 12.7573 7.79873 14.3155 7.1603C14.3155 7.1603 15.8736 6.52186 17.5574 6.53123C17.5574 6.53123 19.2696 6.5442 20.8287 7.22819C20.8287 7.22819 22.3287 7.88627 23.4835 9.07243C23.4835 9.07243 24.6338 10.254 25.2646 11.7775C25.2646 11.7775 25.9164 13.3518 25.9164 15.0636V15.8125C25.9164 15.8125 25.9164 20.1891 27.29 22.5616C27.29 22.5616 27.5162 22.9534 27.5166 23.4047C27.5166 23.4047 27.517 23.8561 27.292 24.2474C27.292 24.2474 27.067 24.6387 26.6767 24.8654C26.6767 24.8654 26.2864 25.0921 25.835 25.0937L9.16799 25.0937C9.16799 25.0937 8.71365 25.0921 8.32335 24.8654C8.32335 24.8654 7.93305 24.6387 7.70806 24.2474C7.70806 24.2474 7.48306 23.8561 7.48346 23.4047C7.48346 23.4047 7.48386 22.9534 7.70955 22.5625C7.70955 22.5625 9.08361 20.1891 9.08361 15.8125ZM10.7711 15.8125C10.7711 15.8125 10.7711 20.6423 9.17096 23.4062L25.8291 23.4062C25.8291 23.4062 24.2289 20.6416 24.2289 15.8125V15.0636C24.2289 15.0636 24.2289 12.2573 22.2744 10.2496C22.2744 10.2496 20.3177 8.23969 17.5481 8.2187C17.5481 8.2187 16.2014 8.21121 14.9553 8.7218C14.9553 8.7218 13.7092 9.23239 12.755 10.1826C12.755 10.1826 11.8007 11.1329 11.285 12.3769C11.285 12.3769 10.7692 13.6209 10.7711 14.9687V15.8125Z" fill="#70707B"/>
<path d="M21.7188 25.0938V24.25C21.7188 23.784 21.341 23.4062 20.875 23.4062C20.409 23.4062 20.0312 23.784 20.0312 24.25V25.0938C20.0313 26.1422 19.2899 26.8836 19.2899 26.8836C18.5485 27.625 17.5 27.625 17.5 27.625C16.4515 27.625 15.7101 26.8836 15.7101 26.8836C14.9688 26.1422 14.9688 25.0938 14.9688 25.0938V24.25C14.9688 23.784 14.591 23.4062 14.125 23.4062C13.659 23.4062 13.2813 23.784 13.2813 24.25L13.2812 25.0938C13.2812 26.8412 14.5169 28.0769 14.5169 28.0769C15.7525 29.3125 17.5 29.3125 17.5 29.3125C19.2475 29.3125 20.4831 28.0769 20.4831 28.0769C21.7188 26.8412 21.7188 25.0938 21.7188 25.0938Z" fill="#70707B"/>
<circle cx="23.6765" cy="9.26473" r="4.64706" fill="#E18A85" stroke="#70707B"/>
</svg>
