<svg width="26" height="26" viewBox="0 0 26 26" fill="none" xmlns="http://www.w3.org/2000/svg">
<path fill-rule="evenodd" clip-rule="evenodd" d="M8.12496 1.08337C8.72327 1.08337 9.20829 1.5684 9.20829 2.16671V3.25004H16.7916V2.16671C16.7916 1.5684 17.2766 1.08337 17.875 1.08337C18.4733 1.08337 18.9583 1.5684 18.9583 2.16671V3.27679C21.6955 3.54855 23.8333 5.85798 23.8333 8.66671V18.4167C23.8333 21.4082 21.4082 23.8334 18.4166 23.8334H7.58329C4.59175 23.8334 2.16663 21.4082 2.16663 18.4167V8.66671C2.16663 5.85798 4.30441 3.54855 7.04163 3.27679V2.16671C7.04163 1.5684 7.52665 1.08337 8.12496 1.08337ZM4.51822 7.58337H21.4817C21.0355 6.32108 19.8317 5.41671 18.4166 5.41671H7.58329C6.16822 5.41671 4.96438 6.32108 4.51822 7.58337ZM21.6666 9.75004H4.33329V18.4167C4.33329 20.2116 5.78837 21.6667 7.58329 21.6667H18.4166C20.2115 21.6667 21.6666 20.2116 21.6666 18.4167V9.75004Z" fill="#70707B"/>
</svg>
