<svg width="14" height="14" viewBox="0 0 14 14" fill="none" xmlns="http://www.w3.org/2000/svg">
<path d="M11.7154 1.10742C12.0408 0.781987 12.5685 0.781979 12.8939 1.10742C13.2193 1.43285 13.2193 1.9605 12.8939 2.28593L8.17984 7.00002L12.8939 11.714C13.2193 12.0394 13.2193 12.5671 12.8939 12.8925C12.5685 13.2179 12.0408 13.2179 11.7154 12.8925L7.00134 8.17852L2.28734 12.8925C2.28225 12.8976 2.27712 12.9026 2.27194 12.9075C1.94546 13.2179 1.42918 13.2129 1.10883 12.8925C0.864752 12.6484 0.803727 12.2906 0.925769 11.9897C0.966444 11.8894 1.02747 11.7954 1.10883 11.714L5.82284 7.00002L1.10883 2.28597C0.783386 1.96054 0.783386 1.4329 1.10883 1.10746C1.43426 0.78202 1.9619 0.78202 2.28734 1.10746L7.00134 5.82144L11.7154 1.10742Z" fill="#656D76"/>
</svg>
