<svg width="26" height="14" viewBox="0 0 26 14" fill="none" xmlns="http://www.w3.org/2000/svg">
<path d="M14.281 2.41125C16.8717 -0.108857 21.0231 -0.0515525 23.5432 2.53911C26.0514 5.11751 26.0898 9.19968 23.487 11.7316C20.8964 14.2517 16.7449 14.1944 14.2248 11.6037C13.855 11.2236 13.5443 10.7952 13.2895 10.35C12.7931 10.7991 12.0262 10.7777 11.5556 10.294L10.3354 9.03956L9.08098 10.2598C8.5861 10.7412 7.79478 10.7303 7.3134 10.2354L6.09316 8.98101L5.19716 9.85261C4.50437 10.5265 3.39644 10.5112 2.72252 9.81845L0.979323 8.02645C0.305404 7.33366 0.320699 6.22573 1.01349 5.55181L2.57009 4.0376C3.09285 3.52907 3.79628 3.24901 4.52553 3.25909L13.3434 3.38082C13.4205 3.38189 13.5063 3.34376 13.5667 3.26025C13.7709 2.97741 14.0034 2.68125 14.281 2.41125ZM21.9126 7.96192C22.4075 7.48055 22.4183 6.68913 21.937 6.19432C21.4556 5.69945 20.6643 5.68855 20.1694 6.16992C19.6746 6.65129 19.6636 7.44264 20.145 7.93752C20.6263 8.43233 21.4178 8.44329 21.9126 7.96192Z" fill="#5C3C1A"/>
</svg>
