<svg width="14" height="24" viewBox="0 0 14 24" fill="none" xmlns="http://www.w3.org/2000/svg">
<path d="M11.375 0.333336C12.8247 0.333336 14 1.50859 14 2.95834V21.0417C14 22.4914 12.8247 23.6667 11.375 23.6667H2.625C1.17525 23.6667 0 22.4914 0 21.0417V2.95834C0 1.50859 1.17525 0.333336 2.625 0.333336H11.375ZM8.45833 19H5.54167C5.05843 19 4.66667 19.3918 4.66667 19.875C4.66667 20.3582 5.05843 20.75 5.54167 20.75H8.45833C8.94157 20.75 9.33333 20.3582 9.33333 19.875C9.33333 19.3918 8.94157 19 8.45833 19Z" fill="#5C3C1A"/>
</svg>
