<svg width="21" height="20" viewBox="0 0 21 20" fill="none" xmlns="http://www.w3.org/2000/svg">
<path fill-rule="evenodd" clip-rule="evenodd" d="M6.84993 0.833313C7.31017 0.833313 7.68327 1.20641 7.68327 1.66665V2.49998H13.5166V1.66665C13.5166 1.20641 13.8897 0.833313 14.3499 0.833313C14.8102 0.833313 15.1833 1.20641 15.1833 1.66665V2.52055C17.2888 2.7296 18.9333 4.50608 18.9333 6.66665V14.1666C18.9333 16.4678 17.0678 18.3333 14.7666 18.3333H6.43327C4.13208 18.3333 2.2666 16.4678 2.2666 14.1666V6.66665C2.2666 4.50608 3.91105 2.7296 6.0166 2.52055V1.66665C6.0166 1.20641 6.3897 0.833313 6.84993 0.833313ZM4.07552 5.83331H17.1243C16.7811 4.86232 15.8551 4.16665 14.7666 4.16665H6.43327C5.34475 4.16665 4.41872 4.86232 4.07552 5.83331ZM17.2666 7.49998H3.93327V14.1666C3.93327 15.5474 5.05256 16.6666 6.43327 16.6666H14.7666C16.1473 16.6666 17.2666 15.5474 17.2666 14.1666V7.49998Z" fill="#70707B"/>
</svg>
