<svg width="20" height="20" viewBox="0 0 20 20" fill="none" xmlns="http://www.w3.org/2000/svg">
<path fill-rule="evenodd" clip-rule="evenodd" d="M6.25008 0.833313C6.71032 0.833313 7.08341 1.20641 7.08341 1.66665V2.49998H12.9167V1.66665C12.9167 1.20641 13.2898 0.833313 13.7501 0.833313C14.2103 0.833313 14.5834 1.20641 14.5834 1.66665V2.52055C16.689 2.7296 18.3334 4.50608 18.3334 6.66665V14.1666C18.3334 16.4678 16.4679 18.3333 14.1667 18.3333H5.83341C3.53223 18.3333 1.66675 16.4678 1.66675 14.1666V6.66665C1.66675 4.50608 3.3112 2.7296 5.41675 2.52055V1.66665C5.41675 1.20641 5.78984 0.833313 6.25008 0.833313ZM3.47567 5.83331H16.5245C16.1813 4.86232 15.2553 4.16665 14.1667 4.16665H5.83341C4.7449 4.16665 3.81887 4.86232 3.47567 5.83331ZM16.6667 7.49998H3.33341V14.1666C3.33341 15.5474 4.4527 16.6666 5.83341 16.6666H14.1667C15.5475 16.6666 16.6667 15.5474 16.6667 14.1666V7.49998Z" fill="#70707B"/>
<path d="M10.075 11C10.0754 11 11.0069 11.0003 11.6658 11.6592C11.6662 11.6596 12.325 12.3183 12.325 13.25C12.325 13.25 12.3248 14.1818 11.6658 14.8408C11.6658 14.8408 11.0069 15.5 10.075 15.5C10.075 15.5 9.14314 15.4998 8.48413 14.8408C8.48413 14.8408 7.82495 14.182 7.82495 13.25C7.82495 13.25 7.82512 12.3182 8.48413 11.6592C8.48443 11.6589 9.14318 11 10.075 11ZM10.075 11.75C10.075 11.75 9.45374 11.7501 9.0144 12.1895C9.0144 12.1895 8.57495 12.6287 8.57495 13.25C8.57495 13.25 8.57506 13.8712 9.0144 14.3105C9.01458 14.3107 9.45376 14.75 10.075 14.75C10.0753 14.75 10.6963 14.7498 11.1355 14.3105C11.1358 14.3102 11.575 13.8711 11.575 13.25C11.575 13.25 11.5748 12.6288 11.1355 12.1895C11.1355 12.1895 10.6963 11.75 10.075 11.75Z" fill="#358B57"/>
<path d="M11.468 15.9005C12.107 16.2996 12.4377 16.9764 12.4377 16.9764L12.4379 16.9768L12.438 16.9771C12.5009 17.1058 12.6317 17.1875 12.775 17.1875L12.7853 17.1874C12.8388 17.1859 12.8914 17.173 12.9395 17.1495C13.0683 17.0866 13.15 16.9558 13.15 16.8125L13.1499 16.8023C13.1484 16.7487 13.1355 16.6961 13.112 16.648L13.1118 16.6477C12.6868 15.7774 11.8653 15.2644 11.8653 15.2644C11.0437 14.7512 10.075 14.7512 10.075 14.7512C9.1063 14.7512 8.28469 15.2644 8.28469 15.2644C7.46321 15.7774 7.03817 16.6477 7.03817 16.6477L7.03804 16.6479C7.01301 16.6992 7 16.7555 7 16.8125L7.00003 16.8174C7.00055 16.8573 7.00742 16.8968 7.02038 16.9344C7.05271 17.0285 7.12109 17.1059 7.21046 17.1495C7.2617 17.1745 7.31797 17.1875 7.375 17.1875L7.38361 17.1874C7.52378 17.1842 7.65045 17.1031 7.71197 16.9771C8.04269 16.2998 8.68198 15.9005 8.68198 15.9005C9.32127 15.5012 10.075 15.5012 10.075 15.5012C10.8287 15.5012 11.468 15.9005 11.468 15.9005Z" fill="#358B57"/>
</svg>
