<svg width="518" height="324" viewBox="0 0 518 324" fill="none" xmlns="http://www.w3.org/2000/svg">
<path d="M233.449 51.2524C261.893 39.2901 298.903 35.4839 370.467 37.0527C420.791 38.1981 434.807 36.8219 447.343 29.8892C458.992 23.4474 465.495 10.58 462.648 -0.594143C460.326 -10.031 460.343 -12.3583 462.697 -13.0802C465.949 -14.0096 469.59 -5.59221 469.622 3.37224C469.855 22.656 455.582 35.6189 429.061 40.5786C417.347 42.7105 390.661 43.7048 364.36 43.0375C290.74 41.1568 261.316 44.5346 229.433 58.3988C202.233 70.2528 182.365 98.7693 178.829 131.147C177.923 140.775 178.032 142.019 180.137 142.158C214.121 143.358 242.658 152.785 264.592 169.919C271.341 175.314 273.602 177.83 277.713 185.263C283.836 196.074 284.463 202.971 280.064 210.474C277.519 214.779 275.867 215.982 268.471 219.637C245.003 231.166 213.695 221.968 191.555 197.125C181.32 185.69 173.34 167.068 171.514 150.404C171.273 147.35 157.897 149.097 140.919 154.284C124.112 159.522 99.6787 173.758 88.0076 185.137C73.6595 199.011 61.4091 216.941 56.3323 231.338L53.7939 238.536L64.4705 231.908C73.2612 226.322 75.0976 225.452 75.3901 227.028C75.6094 228.211 73.1543 230.583 67.9139 234.205C63.6106 237.164 58.2709 241.131 55.9764 243.269C53.7928 245.346 50.1904 248.787 47.9455 250.752C41.1728 257.105 40.9274 256.661 37.4795 237.852C35.7249 228.391 33.9912 220.803 33.6584 220.987C33.3256 221.171 33.2289 220.21 33.5148 218.893C33.9754 216.32 38.883 212.882 39.7419 214.435C39.9873 214.879 41.3411 221.519 42.7302 229.008C44.1193 236.498 45.3504 242.916 45.4731 243.138C45.6571 243.47 47.1306 239.324 48.8403 234.032C56.1018 210.749 72.7429 189.232 97.1465 171.536C115.483 158.064 136.89 148.834 158.792 144.69C165.604 143.386 171.111 142.079 171.099 141.796C173.792 112.347 181.131 93.6567 196.705 76.4973C202.566 70.0688 217.785 58.0312 222.851 55.6646C223.8 55.2847 228.594 53.2131 233.449 51.2524ZM180.153 158.954C182.957 173.195 191.412 188.222 202.204 198.044C212.874 207.645 221.311 212.686 234.195 216.861C263.127 226.215 284.667 211.985 273.194 191.239C264.114 174.819 240.896 159.554 214.447 152.594C201.081 149.12 180.83 146.556 179.201 148.326C178.708 148.744 179.191 153.547 180.153 158.954Z" fill="#358B57"/>
</svg>
