<svg width="16" height="16" viewBox="0 0 16 16" fill="none" xmlns="http://www.w3.org/2000/svg">
<path d="M4 6.66668V5.33334C4 3.12668 4.66667 1.33334 8 1.33334C11.3333 1.33334 12 3.12668 12 5.33334V6.66668" stroke="#8E8E8E" stroke-width="1.5" stroke-linecap="round" stroke-linejoin="round"/>
<path d="M7.99998 12.3333C8.92045 12.3333 9.66665 11.5871 9.66665 10.6667C9.66665 9.74619 8.92045 9 7.99998 9C7.07951 9 6.33331 9.74619 6.33331 10.6667C6.33331 11.5871 7.07951 12.3333 7.99998 12.3333Z" stroke="#8E8E8E" stroke-width="1.5" stroke-linecap="round" stroke-linejoin="round"/>
<path d="M11.3333 14.6667H4.66665C1.99998 14.6667 1.33331 14 1.33331 11.3333V9.99999C1.33331 7.33332 1.99998 6.66666 4.66665 6.66666H11.3333C14 6.66666 14.6666 7.33332 14.6666 9.99999V11.3333C14.6666 14 14 14.6667 11.3333 14.6667Z" stroke="#8E8E8E" stroke-width="1.5" stroke-linecap="round" stroke-linejoin="round"/>
</svg>
