<svg width="16" height="16" viewBox="0 0 16 16" fill="none" xmlns="http://www.w3.org/2000/svg">
<path d="M12.4444 13.3333H2.66666V3.55555H8.54222L9.4311 2.66666H2.66666C2.43091 2.66666 2.20482 2.76031 2.03812 2.92701C1.87142 3.0937 1.77777 3.3198 1.77777 3.55555V13.3333C1.77777 13.5691 1.87142 13.7952 2.03812 13.9619C2.20482 14.1286 2.43091 14.2222 2.66666 14.2222H12.4444C12.6802 14.2222 12.9063 14.1286 13.073 13.9619C13.2397 13.7952 13.3333 13.5691 13.3333 13.3333V6.66666L12.4444 7.55555V13.3333Z" fill="#7E7E7E" stroke="#7E7E7E" stroke-width="0.5"/>
<path d="M14.9022 2.59556L13.4044 1.09779C13.338 1.03113 13.259 0.978251 13.1721 0.942168C13.0851 0.906086 12.9919 0.887512 12.8978 0.887512C12.8036 0.887512 12.7104 0.906086 12.6235 0.942168C12.5365 0.978251 12.4576 1.03113 12.3911 1.09779L6.29777 7.22668L5.80444 9.36445C5.78342 9.46808 5.78563 9.57508 5.81091 9.67775C5.83619 9.78042 5.8839 9.87621 5.95063 9.95823C6.01735 10.0403 6.10143 10.1065 6.1968 10.1521C6.29218 10.1978 6.39648 10.2217 6.50222 10.2222C6.55687 10.2283 6.61201 10.2283 6.66666 10.2222L8.82222 9.74668L14.9022 3.6089C14.9689 3.54243 15.0218 3.46346 15.0578 3.37652C15.0939 3.28957 15.1125 3.19636 15.1125 3.10223C15.1125 3.0081 15.0939 2.91489 15.0578 2.82795C15.0218 2.741 14.9689 2.66204 14.9022 2.59556ZM8.35999 8.92445L6.73333 9.28445L7.11111 7.67112L11.6978 3.05334L12.9511 4.30668L8.35999 8.92445ZM13.4533 3.80445L12.2 2.55112L12.8889 1.8489L14.1511 3.11112L13.4533 3.80445Z" fill="#7E7E7E" stroke="#7E7E7E" stroke-width="0.5"/>
</svg>
