<svg width="16" height="16" viewBox="0 0 16 16" fill="none" xmlns="http://www.w3.org/2000/svg">
<path d="M8.00002 8.00001C9.84097 8.00001 11.3334 6.50763 11.3334 4.66668C11.3334 2.82573 9.84097 1.33334 8.00002 1.33334C6.15907 1.33334 4.66669 2.82573 4.66669 4.66668C4.66669 6.50763 6.15907 8.00001 8.00002 8.00001Z" stroke="#7E7E7E" stroke-width="1.5" stroke-linecap="round" stroke-linejoin="round"/>
<path d="M2.27332 14.6667C2.27332 12.0867 4.83998 10 7.99998 10C8.63998 10 9.25999 10.0867 9.83999 10.2467" stroke="#7E7E7E" stroke-width="1.5" stroke-linecap="round" stroke-linejoin="round"/>
<path d="M14.6666 12C14.6666 12.2133 14.64 12.42 14.5867 12.62C14.5267 12.8867 14.42 13.1467 14.28 13.3733C13.82 14.1467 12.9733 14.6667 12 14.6667C11.3133 14.6667 10.6933 14.4067 10.2266 13.98C10.0266 13.8067 9.8533 13.6 9.71997 13.3733C9.4733 12.9733 9.33331 12.5 9.33331 12C9.33331 11.28 9.61998 10.62 10.0866 10.14C10.5733 9.64002 11.2533 9.33334 12 9.33334C12.7866 9.33334 13.5 9.67335 13.98 10.22C14.4066 10.6934 14.6666 11.32 14.6666 12Z" stroke="#7E7E7E" stroke-width="1.5" stroke-miterlimit="10" stroke-linecap="round" stroke-linejoin="round"/>
<path d="M12.9933 11.9866H11.0067" stroke="#7E7E7E" stroke-width="1.5" stroke-miterlimit="10" stroke-linecap="round" stroke-linejoin="round"/>
<path d="M12 11.0133V13.0067" stroke="#7E7E7E" stroke-width="1.5" stroke-miterlimit="10" stroke-linecap="round" stroke-linejoin="round"/>
</svg>
