<svg width="24" height="24" viewBox="0 0 24 24" fill="none" xmlns="http://www.w3.org/2000/svg">
<path fill-rule="evenodd" clip-rule="evenodd" d="M8.7516 17.6484C8.52663 17.4234 8.40025 17.1182 8.40025 16.8C8.40025 16.4818 8.52663 16.1767 8.7516 15.9516L12.7032 12L8.7516 8.04842C8.53301 7.8221 8.41205 7.51898 8.41479 7.20434C8.41752 6.88971 8.54373 6.58873 8.76621 6.36624C8.9887 6.14375 9.28968 6.01755 9.60432 6.01482C9.91895 6.01208 10.2221 6.13304 10.4484 6.35163L15.2484 11.1516C15.4734 11.3767 15.5997 11.6818 15.5997 12C15.5997 12.3182 15.4734 12.6234 15.2484 12.8484L10.4484 17.6484C10.2234 17.8734 9.91819 17.9998 9.6 17.9998C9.2818 17.9998 8.97663 17.8734 8.7516 17.6484Z" fill="#5C3C1A"/>
</svg>
