<svg width="21" height="20" viewBox="0 0 21 20" fill="none" xmlns="http://www.w3.org/2000/svg">
<path fill-rule="evenodd" clip-rule="evenodd" d="M7.05013 0.833313C7.51037 0.833313 7.88346 1.20641 7.88346 1.66665V2.49998H13.7168V1.66665C13.7168 1.20641 14.0899 0.833313 14.5501 0.833313C15.0104 0.833313 15.3835 1.20641 15.3835 1.66665V2.52055C17.489 2.7296 19.1335 4.50608 19.1335 6.66665V14.1666C19.1335 16.4678 17.268 18.3333 14.9668 18.3333H6.63346C4.33228 18.3333 2.4668 16.4678 2.4668 14.1666V6.66665C2.4668 4.50608 4.11125 2.7296 6.2168 2.52055V1.66665C6.2168 1.20641 6.58989 0.833313 7.05013 0.833313ZM4.27572 5.83331H17.3245C16.9813 4.86232 16.0553 4.16665 14.9668 4.16665H6.63346C5.54495 4.16665 4.61892 4.86232 4.27572 5.83331ZM17.4668 7.49998H4.13346V14.1666C4.13346 15.5474 5.25275 16.6666 6.63346 16.6666H14.9668C16.3475 16.6666 17.4668 15.5474 17.4668 14.1666V7.49998Z" fill="#70707B"/>
<path d="M10.8 11.3124C10.8005 11.3124 11.732 11.3128 12.3909 11.9716C12.3913 11.9721 13.05 12.6308 13.05 13.5624C13.05 13.5624 13.0499 14.4942 12.3909 15.1533C12.3909 15.1533 11.732 15.8124 10.8 15.8124C10.8 15.8124 9.86824 15.8123 9.20923 15.1533C9.20923 15.1533 8.55005 14.4944 8.55005 13.5624C8.55005 13.5624 8.55022 12.6306 9.20923 11.9716C9.20953 11.9713 9.86828 11.3124 10.8 11.3124ZM10.8 12.0624C10.8 12.0624 10.1788 12.0626 9.7395 12.5019C9.7395 12.5019 9.30005 12.9411 9.30005 13.5624C9.30005 13.5624 9.30016 14.1836 9.7395 14.623C9.73968 14.6232 10.1789 15.0624 10.8 15.0624C10.8004 15.0624 11.4214 15.0622 11.8606 14.623C11.8609 14.6226 12.3 14.1835 12.3 13.5624C12.3 13.5624 12.2999 12.9412 11.8606 12.5019C11.8606 12.5019 11.4214 12.0624 10.8 12.0624Z" fill="#358B57"/>
<path d="M15.9369 13.7868L15.9371 13.7869C15.9966 13.8666 16.0854 13.9194 16.1838 13.9336C16.2016 13.9362 16.2195 13.9374 16.2374 13.9374L16.2381 13.9374C16.3188 13.9373 16.3973 13.9111 16.4619 13.8628C16.5567 13.792 16.6124 13.6807 16.6124 13.5624L16.6124 13.5582C16.6115 13.4787 16.5854 13.4016 16.5378 13.3379L16.5375 13.3375C16.0868 12.7346 15.4134 12.398 15.4134 12.398C14.7399 12.0612 13.9868 12.0624 13.9868 12.0624L13.9874 12.0624C14.1946 12.0624 14.3624 12.2303 14.3624 12.4374C14.3624 12.6442 14.1951 12.812 13.9883 12.8124L15.9369 13.7868Z" fill="#358B57"/>
<path d="M6.52197 13.0688C7.03658 12.8115 7.61192 12.8124 7.61192 12.8124L7.61245 12.8124H7.61255C7.61835 12.8124 7.62414 12.8123 7.62994 12.812C7.72306 12.8077 7.81124 12.7689 7.87727 12.7031C7.94771 12.6328 7.98738 12.5375 7.98755 12.4381L7.98755 12.4376V12.4374C7.98755 12.4148 7.98549 12.3921 7.9814 12.3698C7.9488 12.192 7.79397 12.0627 7.61318 12.0624L7.61255 12.0624C6.85984 12.0613 6.18656 12.398 6.18656 12.398C5.51324 12.7346 5.06249 13.3375 5.06249 13.3375L5.06222 13.3379C5.01373 13.4028 4.98755 13.4815 4.98755 13.5624L4.98757 13.5664C4.98774 13.583 4.98903 13.5996 4.99141 13.6161C5.00564 13.7145 5.05839 13.8033 5.13805 13.8628C5.20287 13.9113 5.28162 13.9374 5.36255 13.9374C5.36756 13.9374 5.37258 13.9373 5.37759 13.9371C5.49047 13.9326 5.59529 13.8774 5.66292 13.7869C6.00736 13.3261 6.52197 13.0688 6.52197 13.0688Z" fill="#358B57"/>
<path d="M12.1931 16.2129C12.8321 16.612 13.1628 17.2888 13.1628 17.2888L13.163 17.2893L13.1631 17.2895C13.226 17.4183 13.3568 17.5 13.5001 17.5L13.5104 17.4998C13.5639 17.4984 13.6165 17.4854 13.6646 17.4619C13.7934 17.3991 13.8751 17.2683 13.8751 17.125L13.875 17.1147C13.8735 17.0612 13.8606 17.0085 13.8371 16.9604L13.8369 16.9601C13.4119 16.0899 12.5904 15.5768 12.5904 15.5768C11.7688 15.0637 10.8001 15.0637 10.8001 15.0637C9.8314 15.0637 9.00978 15.5768 9.00978 15.5768C8.18831 16.0899 7.76327 16.9601 7.76327 16.9601L7.76314 16.9604C7.7381 17.0117 7.7251 17.0679 7.7251 17.125L7.72513 17.1298C7.72565 17.1697 7.73252 17.2092 7.74547 17.2469C7.77781 17.3409 7.84619 17.4183 7.93556 17.4619C7.9868 17.487 8.04307 17.5 8.1001 17.5L8.10871 17.4999C8.24888 17.4966 8.37555 17.4155 8.43707 17.2895C8.76779 16.6122 9.40708 16.2129 9.40708 16.2129C10.0464 15.8137 10.8001 15.8137 10.8001 15.8137C11.5538 15.8137 12.1931 16.2129 12.1931 16.2129Z" fill="#358B57"/>
<path d="M8.431 10.1671C8.65484 10.4054 8.71614 10.7265 8.71614 10.7265C8.73478 10.8242 8.79148 10.9105 8.87374 10.9663C8.93591 11.0086 9.00933 11.0312 9.08448 11.0312L9.08692 11.0312C9.1097 11.031 9.13242 11.0288 9.1548 11.0245C9.3316 10.9908 9.45949 10.8362 9.45949 10.6562L9.45948 10.6541C9.45935 10.6312 9.45713 10.6083 9.45283 10.5859C9.35067 10.0507 8.9776 9.65357 8.9776 9.65357C8.60454 9.25648 8.07676 9.12116 8.07676 9.12116C7.54898 8.98584 7.03087 9.15445 7.03087 9.15445C6.51276 9.32305 6.1657 9.74307 6.1657 9.74307C5.81863 10.1631 5.75071 10.7037 5.75071 10.7037C5.68279 11.2443 5.91517 11.7371 5.91517 11.7371C6.14755 12.2299 6.60784 12.5214 6.60784 12.5214C7.06798 12.8129 7.61261 12.8124 7.61261 12.8124L7.61299 12.8124C7.71245 12.8123 7.80779 12.7727 7.87804 12.7023C7.94821 12.632 7.98761 12.5367 7.98761 12.4374L7.98761 12.437C7.9874 12.2301 7.81957 12.0624 7.61261 12.0624L7.61223 12.0624C7.28532 12.0627 7.00914 11.8878 7.00914 11.8878C6.73296 11.7129 6.59354 11.4172 6.59354 11.4172C6.45411 11.1215 6.49486 10.7972 6.49486 10.7972C6.53562 10.4728 6.74385 10.2208 6.74385 10.2208C6.95209 9.9688 7.26296 9.86764 7.26296 9.86764C7.57382 9.76647 7.89049 9.84766 7.89049 9.84766C8.20716 9.92885 8.431 10.1671 8.431 10.1671Z" fill="#358B57"/>
<path d="M14.591 11.8878C14.3148 12.0627 13.9879 12.0624 13.9879 12.0624L13.9875 12.0624C13.9816 12.0624 13.9757 12.0626 13.9699 12.0628L13.6129 12.455C13.6173 12.5482 13.6562 12.6363 13.7221 12.7023C13.7923 12.7727 13.8877 12.8123 13.9871 12.8124L13.9875 12.8124C14.5321 12.8129 14.9923 12.5214 14.9923 12.5214C15.4526 12.2299 15.6849 11.7371 15.6849 11.7371C15.9173 11.2443 15.8494 10.7037 15.8494 10.7037C15.7815 10.1631 15.4344 9.74307 15.4344 9.74307C15.0873 9.32305 14.5692 9.15445 14.5692 9.15445C14.0511 8.98584 13.5234 9.12116 13.5234 9.12116C12.9956 9.25648 12.6225 9.65357 12.6225 9.65357C12.2494 10.0507 12.1473 10.5859 12.1473 10.5859C12.1429 10.609 12.1406 10.6326 12.1406 10.6562C12.1406 10.6674 12.1411 10.6787 12.1421 10.6899C12.1572 10.8566 12.2809 10.9931 12.4453 11.0245C12.4685 11.0289 12.492 11.0312 12.5156 11.0312C12.5269 11.0312 12.5382 11.0307 12.5494 11.0296C12.7161 11.0146 12.8526 10.8909 12.884 10.7265C12.9453 10.4054 13.1691 10.1671 13.1691 10.1671C13.393 9.92885 13.7096 9.84766 13.7096 9.84766C14.0263 9.76647 14.3372 9.86764 14.3372 9.86764C14.648 9.9688 14.8563 10.2208 14.8563 10.2208C15.0645 10.4728 15.1052 10.7972 15.1052 10.7972C15.146 11.1215 15.0066 11.4172 15.0066 11.4172C14.8671 11.7129 14.591 11.8878 14.591 11.8878Z" fill="#358B57"/>
</svg>
